<svg width="142" height="136" viewBox="0 0 142 136" fill="none" xmlns="http://www.w3.org/2000/svg">
<path d="M14.3555 74.7959V94.415H24.165C25.5094 94.415 26.7741 94.1644 27.959 93.6631C29.1439 93.139 30.1807 92.4326 31.0693 91.5439C31.958 90.6553 32.653 89.6185 33.1543 88.4336C33.6784 87.2259 33.9404 85.9499 33.9404 84.6055C33.9404 83.2611 33.6784 81.9964 33.1543 80.8115C32.653 79.6038 31.958 78.5557 31.0693 77.667C30.1807 76.7783 29.1439 76.0833 27.959 75.582C26.7741 75.0579 25.5094 74.7959 24.165 74.7959H14.3555ZM14.3555 114H4.5459V64.9863H24.165C25.9652 64.9863 27.6969 65.2256 29.3604 65.7041C31.0238 66.1598 32.5732 66.8206 34.0088 67.6865C35.4671 68.5296 36.7887 69.555 37.9736 70.7627C39.1813 71.9476 40.2067 73.2692 41.0498 74.7275C41.9157 76.1859 42.5765 77.7467 43.0322 79.4102C43.5107 81.0736 43.75 82.8053 43.75 84.6055C43.75 86.2917 43.5335 87.9323 43.1006 89.5273C42.6904 91.1224 42.0866 92.6377 41.2891 94.0732C40.5143 95.5088 39.5573 96.8304 38.418 98.0381C37.2786 99.2458 36.0026 100.294 34.5898 101.183L40.0244 114H29.5996L25.3271 104.122L14.3555 104.19V114ZM84.2529 114H81.9971L78.374 108.976C77.4854 109.773 76.5397 110.525 75.5371 111.231C74.5573 111.915 73.5205 112.519 72.4268 113.043C71.333 113.544 70.2051 113.943 69.043 114.239C67.9036 114.535 66.7415 114.684 65.5566 114.684C62.9818 114.684 60.555 114.251 58.2764 113.385C56.0205 112.519 54.0381 111.266 52.3291 109.625C50.6429 107.962 49.3099 105.934 48.3301 103.541C47.3503 101.148 46.8604 98.4255 46.8604 95.3721C46.8604 92.5238 47.3503 89.9147 48.3301 87.5449C49.3099 85.1523 50.6429 83.1016 52.3291 81.3926C54.0381 79.6836 56.0205 78.362 58.2764 77.4277C60.555 76.4707 62.9818 75.9922 65.5566 75.9922C66.7415 75.9922 67.915 76.1403 69.0771 76.4365C70.2393 76.7327 71.3672 77.1429 72.4609 77.667C73.5547 78.1911 74.5915 78.8063 75.5713 79.5127C76.5739 80.2191 77.5081 80.9824 78.374 81.8027L81.9971 77.4619H84.2529V114ZM74.8535 95.3721C74.8535 94.096 74.6029 92.8656 74.1016 91.6807C73.623 90.473 72.9622 89.4134 72.1191 88.502C71.276 87.5677 70.2848 86.8271 69.1455 86.2803C68.029 85.7106 66.8327 85.4258 65.5566 85.4258C64.2806 85.4258 63.0729 85.6423 61.9336 86.0752C60.8171 86.5081 59.8372 87.1462 58.9941 87.9893C58.1738 88.8324 57.5244 89.8805 57.0459 91.1338C56.5674 92.3643 56.3281 93.777 56.3281 95.3721C56.3281 96.9671 56.5674 98.3913 57.0459 99.6445C57.5244 100.875 58.1738 101.912 58.9941 102.755C59.8372 103.598 60.8171 104.236 61.9336 104.669C63.0729 105.102 64.2806 105.318 65.5566 105.318C66.8327 105.318 68.029 105.045 69.1455 104.498C70.2848 103.928 71.276 103.188 72.1191 102.276C72.9622 101.342 73.623 100.283 74.1016 99.0977C74.6029 97.89 74.8535 96.6481 74.8535 95.3721ZM105.957 105.045C106.322 105.159 106.686 105.239 107.051 105.284C107.415 105.307 107.78 105.318 108.145 105.318C109.056 105.318 109.933 105.193 110.776 104.942C111.619 104.692 112.406 104.339 113.135 103.883C113.887 103.404 114.548 102.835 115.117 102.174C115.71 101.49 116.188 100.738 116.553 99.918L123.389 106.788C122.523 108.019 121.52 109.124 120.381 110.104C119.264 111.083 118.045 111.915 116.724 112.599C115.425 113.282 114.046 113.795 112.588 114.137C111.152 114.501 109.671 114.684 108.145 114.684C105.57 114.684 103.143 114.205 100.864 113.248C98.6084 112.291 96.626 110.958 94.917 109.249C93.2308 107.54 91.8978 105.512 90.918 103.165C89.9382 100.795 89.4482 98.1976 89.4482 95.3721C89.4482 92.4782 89.9382 89.835 90.918 87.4424C91.8978 85.0498 93.2308 83.0104 94.917 81.3242C96.626 79.638 98.6084 78.3278 100.864 77.3936C103.143 76.4593 105.57 75.9922 108.145 75.9922C109.671 75.9922 111.164 76.1745 112.622 76.5391C114.08 76.9036 115.459 77.4277 116.758 78.1113C118.079 78.7949 119.31 79.638 120.449 80.6406C121.589 81.6204 122.591 82.7256 123.457 83.9561L105.957 105.045ZM110.742 85.8018C110.309 85.6423 109.876 85.5397 109.443 85.4941C109.033 85.4486 108.6 85.4258 108.145 85.4258C106.868 85.4258 105.661 85.665 104.521 86.1436C103.405 86.5993 102.425 87.2601 101.582 88.126C100.762 88.9919 100.112 90.04 99.6338 91.2705C99.1553 92.4782 98.916 93.8454 98.916 95.3721C98.916 95.7139 98.9274 96.1012 98.9502 96.5342C98.9958 96.9671 99.0527 97.4115 99.1211 97.8672C99.2122 98.3001 99.3148 98.7217 99.4287 99.1318C99.5426 99.542 99.6908 99.9066 99.873 100.226L110.742 85.8018ZM137.573 114H128.174V62.833H137.573V114Z" fill="black"/>
<path d="M104.039 65.5137C104.039 66.334 103.891 67.1087 103.595 67.8379C103.299 68.5443 102.888 69.1595 102.364 69.6836C101.84 70.2077 101.225 70.6178 100.519 70.9141C99.8122 71.2331 99.0488 71.3926 98.2285 71.3926C97.431 71.3926 96.6676 71.2331 95.9385 70.9141C95.2321 70.6178 94.6055 70.2077 94.0586 69.6836C93.5345 69.1595 93.113 68.5443 92.7939 67.8379C92.4977 67.1087 92.3496 66.334 92.3496 65.5137C92.3496 64.7161 92.4977 63.9642 92.7939 63.2578C93.113 62.5514 93.5345 61.9362 94.0586 61.4121C94.6055 60.888 95.2321 60.4779 95.9385 60.1816C96.6676 59.8626 97.431 59.7031 98.2285 59.7031C99.0488 59.7031 99.8122 59.8626 100.519 60.1816C101.225 60.4779 101.84 60.888 102.364 61.4121C102.888 61.9362 103.299 62.5514 103.595 63.2578C103.891 63.9642 104.039 64.7161 104.039 65.5137ZM122.496 65.5137C122.496 66.334 122.348 67.1087 122.052 67.8379C121.756 68.5443 121.345 69.1595 120.821 69.6836C120.297 70.2077 119.682 70.6178 118.976 70.9141C118.269 71.2331 117.506 71.3926 116.686 71.3926C115.888 71.3926 115.125 71.2331 114.396 70.9141C113.689 70.6178 113.062 70.2077 112.516 69.6836C111.992 69.1595 111.57 68.5443 111.251 67.8379C110.955 67.1087 110.807 66.334 110.807 65.5137C110.807 64.7161 110.955 63.9642 111.251 63.2578C111.57 62.5514 111.992 61.9362 112.516 61.4121C113.062 60.888 113.689 60.4779 114.396 60.1816C115.125 59.8626 115.888 59.7031 116.686 59.7031C117.506 59.7031 118.269 59.8626 118.976 60.1816C119.682 60.4779 120.297 60.888 120.821 61.4121C121.345 61.9362 121.756 62.5514 122.052 63.2578C122.348 63.9642 122.496 64.7161 122.496 65.5137Z" fill="black"/>
</svg>
