<svg width="134" height="56" viewBox="0 0 134 56" fill="none" xmlns="http://www.w3.org/2000/svg">
<path d="M10.3555 15.7959V35.415H20.165C21.5094 35.415 22.7741 35.1644 23.959 34.6631C25.1439 34.139 26.1807 33.4326 27.0693 32.5439C27.958 31.6553 28.653 30.6185 29.1543 29.4336C29.6784 28.2259 29.9404 26.9499 29.9404 25.6055C29.9404 24.2611 29.6784 22.9964 29.1543 21.8115C28.653 20.6038 27.958 19.5557 27.0693 18.667C26.1807 17.7783 25.1439 17.0833 23.959 16.582C22.7741 16.0579 21.5094 15.7959 20.165 15.7959H10.3555ZM10.3555 55H0.545898V5.98633H20.165C21.9652 5.98633 23.6969 6.22559 25.3604 6.7041C27.0238 7.15983 28.5732 7.82064 30.0088 8.68652C31.4671 9.52962 32.7887 10.555 33.9736 11.7627C35.1813 12.9476 36.2067 14.2692 37.0498 15.7275C37.9157 17.1859 38.5765 18.7467 39.0322 20.4102C39.5107 22.0736 39.75 23.8053 39.75 25.6055C39.75 27.2917 39.5335 28.9323 39.1006 30.5273C38.6904 32.1224 38.0866 33.6377 37.2891 35.0732C36.5143 36.5088 35.5573 37.8304 34.418 39.0381C33.2786 40.2458 32.0026 41.2939 30.5898 42.1826L36.0244 55H25.5996L21.3271 45.1221L10.3555 45.1904V55ZM80.2529 55H77.9971L74.374 49.9756C73.4854 50.7731 72.5397 51.5251 71.5371 52.2314C70.5573 52.915 69.5205 53.5189 68.4268 54.043C67.333 54.5443 66.2051 54.943 65.043 55.2393C63.9036 55.5355 62.7415 55.6836 61.5566 55.6836C58.9818 55.6836 56.555 55.2507 54.2764 54.3848C52.0205 53.5189 50.0381 52.2656 48.3291 50.625C46.6429 48.9616 45.3099 46.9336 44.3301 44.541C43.3503 42.1484 42.8604 39.4255 42.8604 36.3721C42.8604 33.5238 43.3503 30.9147 44.3301 28.5449C45.3099 26.1523 46.6429 24.1016 48.3291 22.3926C50.0381 20.6836 52.0205 19.362 54.2764 18.4277C56.555 17.4707 58.9818 16.9922 61.5566 16.9922C62.7415 16.9922 63.915 17.1403 65.0771 17.4365C66.2393 17.7327 67.3672 18.1429 68.4609 18.667C69.5547 19.1911 70.5915 19.8063 71.5713 20.5127C72.5739 21.2191 73.5081 21.9824 74.374 22.8027L77.9971 18.4619H80.2529V55ZM70.8535 36.3721C70.8535 35.096 70.6029 33.8656 70.1016 32.6807C69.623 31.473 68.9622 30.4134 68.1191 29.502C67.276 28.5677 66.2848 27.8271 65.1455 27.2803C64.029 26.7106 62.8327 26.4258 61.5566 26.4258C60.2806 26.4258 59.0729 26.6423 57.9336 27.0752C56.8171 27.5081 55.8372 28.1462 54.9941 28.9893C54.1738 29.8324 53.5244 30.8805 53.0459 32.1338C52.5674 33.3643 52.3281 34.777 52.3281 36.3721C52.3281 37.9671 52.5674 39.3913 53.0459 40.6445C53.5244 41.875 54.1738 42.9118 54.9941 43.7549C55.8372 44.598 56.8171 45.236 57.9336 45.6689C59.0729 46.1019 60.2806 46.3184 61.5566 46.3184C62.8327 46.3184 64.029 46.0449 65.1455 45.498C66.2848 44.9284 67.276 44.1878 68.1191 43.2764C68.9622 42.3421 69.623 41.2826 70.1016 40.0977C70.6029 38.89 70.8535 37.6481 70.8535 36.3721ZM101.957 46.0449C102.322 46.1589 102.686 46.2386 103.051 46.2842C103.415 46.307 103.78 46.3184 104.145 46.3184C105.056 46.3184 105.933 46.193 106.776 45.9424C107.619 45.6917 108.406 45.3385 109.135 44.8828C109.887 44.4043 110.548 43.8346 111.117 43.1738C111.71 42.4902 112.188 41.7383 112.553 40.918L119.389 47.7881C118.523 49.0186 117.52 50.1237 116.381 51.1035C115.264 52.0833 114.045 52.915 112.724 53.5986C111.425 54.2822 110.046 54.7949 108.588 55.1367C107.152 55.5013 105.671 55.6836 104.145 55.6836C101.57 55.6836 99.1429 55.2051 96.8643 54.248C94.6084 53.291 92.626 51.958 90.917 50.249C89.2308 48.54 87.8978 46.512 86.918 44.165C85.9382 41.7952 85.4482 39.1976 85.4482 36.3721C85.4482 33.4782 85.9382 30.835 86.918 28.4424C87.8978 26.0498 89.2308 24.0104 90.917 22.3242C92.626 20.638 94.6084 19.3278 96.8643 18.3936C99.1429 17.4593 101.57 16.9922 104.145 16.9922C105.671 16.9922 107.164 17.1745 108.622 17.5391C110.08 17.9036 111.459 18.4277 112.758 19.1113C114.079 19.7949 115.31 20.638 116.449 21.6406C117.589 22.6204 118.591 23.7256 119.457 24.9561L101.957 46.0449ZM106.742 26.8018C106.309 26.6423 105.876 26.5397 105.443 26.4941C105.033 26.4486 104.6 26.4258 104.145 26.4258C102.868 26.4258 101.661 26.665 100.521 27.1436C99.4049 27.5993 98.4251 28.2601 97.582 29.126C96.7617 29.9919 96.1123 31.04 95.6338 32.2705C95.1553 33.4782 94.916 34.8454 94.916 36.3721C94.916 36.7139 94.9274 37.1012 94.9502 37.5342C94.9958 37.9671 95.0527 38.4115 95.1211 38.8672C95.2122 39.3001 95.3148 39.7217 95.4287 40.1318C95.5426 40.542 95.6908 40.9066 95.873 41.2256L106.742 26.8018ZM133.573 55H124.174V3.83301H133.573V55Z" fill="black"/>
<path d="M100.039 6.51367C100.039 7.33398 99.891 8.10872 99.5947 8.83789C99.2985 9.54427 98.8883 10.1595 98.3643 10.6836C97.8402 11.2077 97.2249 11.6178 96.5186 11.9141C95.8122 12.2331 95.0488 12.3926 94.2285 12.3926C93.431 12.3926 92.6676 12.2331 91.9385 11.9141C91.2321 11.6178 90.6055 11.2077 90.0586 10.6836C89.5345 10.1595 89.113 9.54427 88.7939 8.83789C88.4977 8.10872 88.3496 7.33398 88.3496 6.51367C88.3496 5.71615 88.4977 4.96419 88.7939 4.25781C89.113 3.55143 89.5345 2.9362 90.0586 2.41211C90.6055 1.88802 91.2321 1.47786 91.9385 1.18164C92.6676 0.86263 93.431 0.703125 94.2285 0.703125C95.0488 0.703125 95.8122 0.86263 96.5186 1.18164C97.2249 1.47786 97.8402 1.88802 98.3643 2.41211C98.8883 2.9362 99.2985 3.55143 99.5947 4.25781C99.891 4.96419 100.039 5.71615 100.039 6.51367ZM118.496 6.51367C118.496 7.33398 118.348 8.10872 118.052 8.83789C117.756 9.54427 117.345 10.1595 116.821 10.6836C116.297 11.2077 115.682 11.6178 114.976 11.9141C114.269 12.2331 113.506 12.3926 112.686 12.3926C111.888 12.3926 111.125 12.2331 110.396 11.9141C109.689 11.6178 109.062 11.2077 108.516 10.6836C107.992 10.1595 107.57 9.54427 107.251 8.83789C106.955 8.10872 106.807 7.33398 106.807 6.51367C106.807 5.71615 106.955 4.96419 107.251 4.25781C107.57 3.55143 107.992 2.9362 108.516 2.41211C109.062 1.88802 109.689 1.47786 110.396 1.18164C111.125 0.86263 111.888 0.703125 112.686 0.703125C113.506 0.703125 114.269 0.86263 114.976 1.18164C115.682 1.47786 116.297 1.88802 116.821 2.41211C117.345 2.9362 117.756 3.55143 118.052 4.25781C118.348 4.96419 118.496 5.71615 118.496 6.51367Z" fill="black"/>
</svg>
